<mxfile host="app.diagrams.net" modified="2023-04-15T20:58:22.059Z" agent="Mozilla/5.0 (X11; Linux x86_64) AppleWebKit/537.36 (KHTML, like Gecko) Chrome/110.0.0.0 Safari/537.36" etag="OB5YnGerMCcACDYMRcjT" version="21.1.4" type="github">
  <diagram name="Page-1" id="3JQ3lmoPW45s1PywFu2i">
    <mxGraphModel dx="1434" dy="738" grid="1" gridSize="10" guides="1" tooltips="1" connect="1" arrows="1" fold="1" page="1" pageScale="1" pageWidth="850" pageHeight="1100" math="0" shadow="0">
      <root>
        <mxCell id="0" />
        <mxCell id="1" parent="0" />
        <mxCell id="ZnYwl7MjdmCnCxrfBc06-2" value="" style="rounded=0;whiteSpace=wrap;html=1;fillColor=#f5f5f5;strokeColor=#666666;gradientColor=#b3b3b3;" vertex="1" parent="1">
          <mxGeometry x="100" y="130" width="570" height="340" as="geometry" />
        </mxCell>
        <mxCell id="ZnYwl7MjdmCnCxrfBc06-6" value="" style="edgeStyle=orthogonalEdgeStyle;rounded=0;orthogonalLoop=1;jettySize=auto;html=1;" edge="1" parent="1" source="ZnYwl7MjdmCnCxrfBc06-3" target="ZnYwl7MjdmCnCxrfBc06-5">
          <mxGeometry relative="1" as="geometry" />
        </mxCell>
        <mxCell id="ZnYwl7MjdmCnCxrfBc06-3" value="UI Component(Chatbox UI)" style="whiteSpace=wrap;html=1;aspect=fixed;" vertex="1" parent="1">
          <mxGeometry x="190" y="200" width="120" height="120" as="geometry" />
        </mxCell>
        <mxCell id="ZnYwl7MjdmCnCxrfBc06-5" value="Http Api Service" style="whiteSpace=wrap;html=1;aspect=fixed;fillStyle=auto;" vertex="1" parent="1">
          <mxGeometry x="420" y="200" width="120" height="120" as="geometry" />
        </mxCell>
        <mxCell id="ZnYwl7MjdmCnCxrfBc06-7" value="" style="endArrow=classic;html=1;rounded=0;entryX=1;entryY=0.667;entryDx=0;entryDy=0;entryPerimeter=0;" edge="1" parent="1" target="ZnYwl7MjdmCnCxrfBc06-3">
          <mxGeometry width="50" height="50" relative="1" as="geometry">
            <mxPoint x="420" y="280" as="sourcePoint" />
            <mxPoint x="340" y="290" as="targetPoint" />
          </mxGeometry>
        </mxCell>
        <mxCell id="ZnYwl7MjdmCnCxrfBc06-16" value="" style="rounded=0;orthogonalLoop=1;jettySize=auto;html=1;endArrow=halfCircle;endFill=0;endSize=6;strokeWidth=1;sketch=0;" edge="1" parent="1">
          <mxGeometry relative="1" as="geometry">
            <mxPoint x="440" y="385" as="sourcePoint" />
            <mxPoint x="440" y="385" as="targetPoint" />
          </mxGeometry>
        </mxCell>
        <mxCell id="ZnYwl7MjdmCnCxrfBc06-18" value="" style="shape=providedRequiredInterface;html=1;verticalLabelPosition=bottom;sketch=0;rotation=90;" vertex="1" parent="1">
          <mxGeometry x="410" y="490" width="25" height="20" as="geometry" />
        </mxCell>
        <mxCell id="ZnYwl7MjdmCnCxrfBc06-20" value="" style="endArrow=none;html=1;rounded=0;" edge="1" parent="1">
          <mxGeometry width="50" height="50" relative="1" as="geometry">
            <mxPoint x="420" y="490" as="sourcePoint" />
            <mxPoint x="420" y="467.5" as="targetPoint" />
            <Array as="points">
              <mxPoint x="420" y="480" />
            </Array>
          </mxGeometry>
        </mxCell>
        <mxCell id="ZnYwl7MjdmCnCxrfBc06-21" value="" style="endArrow=classic;html=1;rounded=0;exitX=1;exitY=0.5;exitDx=0;exitDy=0;exitPerimeter=0;" edge="1" parent="1" source="ZnYwl7MjdmCnCxrfBc06-18">
          <mxGeometry width="50" height="50" relative="1" as="geometry">
            <mxPoint x="425" y="510" as="sourcePoint" />
            <mxPoint x="423" y="540" as="targetPoint" />
          </mxGeometry>
        </mxCell>
        <mxCell id="ZnYwl7MjdmCnCxrfBc06-22" value="" style="rounded=0;whiteSpace=wrap;html=1;fillColor=#f5f5f5;gradientColor=#b3b3b3;strokeColor=#666666;" vertex="1" parent="1">
          <mxGeometry x="110" y="540" width="570" height="220" as="geometry" />
        </mxCell>
        <mxCell id="ZnYwl7MjdmCnCxrfBc06-25" value="" style="edgeStyle=orthogonalEdgeStyle;rounded=0;orthogonalLoop=1;jettySize=auto;html=1;" edge="1" parent="1" source="ZnYwl7MjdmCnCxrfBc06-23" target="ZnYwl7MjdmCnCxrfBc06-24">
          <mxGeometry relative="1" as="geometry" />
        </mxCell>
        <mxCell id="ZnYwl7MjdmCnCxrfBc06-23" value="Model Training" style="rounded=0;whiteSpace=wrap;html=1;" vertex="1" parent="1">
          <mxGeometry x="160" y="620" width="120" height="60" as="geometry" />
        </mxCell>
        <mxCell id="ZnYwl7MjdmCnCxrfBc06-27" value="" style="edgeStyle=orthogonalEdgeStyle;rounded=0;orthogonalLoop=1;jettySize=auto;html=1;" edge="1" parent="1" source="ZnYwl7MjdmCnCxrfBc06-24" target="ZnYwl7MjdmCnCxrfBc06-26">
          <mxGeometry relative="1" as="geometry" />
        </mxCell>
        <mxCell id="ZnYwl7MjdmCnCxrfBc06-24" value="Model.pkl(Saved Versiom)" style="ellipse;whiteSpace=wrap;html=1;rounded=0;" vertex="1" parent="1">
          <mxGeometry x="380" y="610" width="110" height="80" as="geometry" />
        </mxCell>
        <mxCell id="ZnYwl7MjdmCnCxrfBc06-26" value="Model Prediction" style="whiteSpace=wrap;html=1;rounded=0;" vertex="1" parent="1">
          <mxGeometry x="520" y="620" width="120" height="60" as="geometry" />
        </mxCell>
        <mxCell id="ZnYwl7MjdmCnCxrfBc06-28" value="Flask Api(Http)" style="text;html=1;align=center;verticalAlign=middle;resizable=0;points=[];autosize=1;strokeColor=none;fillColor=none;" vertex="1" parent="1">
          <mxGeometry x="425" y="485" width="100" height="30" as="geometry" />
        </mxCell>
        <mxCell id="ZnYwl7MjdmCnCxrfBc06-30" value="FRONTEND" style="text;html=1;align=center;verticalAlign=middle;resizable=0;points=[];autosize=1;fillColor=#e1d5e7;rotation=270;strokeColor=#9673a6;" vertex="1" parent="1">
          <mxGeometry x="15" y="255" width="90" height="30" as="geometry" />
        </mxCell>
        <mxCell id="ZnYwl7MjdmCnCxrfBc06-31" value="BACKEND" style="text;html=1;align=center;verticalAlign=middle;resizable=0;points=[];autosize=1;strokeColor=#9673a6;fillColor=#e1d5e7;rotation=270;" vertex="1" parent="1">
          <mxGeometry x="20" y="615" width="80" height="30" as="geometry" />
        </mxCell>
      </root>
    </mxGraphModel>
  </diagram>
</mxfile>
